<?xml version="1.0" standalone="no"?>
<!DOCTYPE svg PUBLIC "-//W3C//DTD SVG 20010904//EN"
 "http://www.w3.org/TR/2001/REC-SVG-20010904/DTD/svg10.dtd">
<svg version="1.0" xmlns="http://www.w3.org/2000/svg"
 width="900.000000pt" height="500.000000pt" viewBox="0 0 900.000000 500.000000"
 preserveAspectRatio="xMidYMid meet">

<g transform="translate(0.000000,500.000000) scale(0.100000,-0.100000)"
fill="#000000" stroke="none">
<path d="M190 2505 l0 -1065 1060 0 1060 0 0 1065 0 1065 -1060 0 -1060 0 0
-1065z m774 293 c25 -79 63 -206 86 -283 22 -77 42 -144 43 -150 2 -5 11 22
21 60 9 39 47 170 84 292 l67 223 158 0 157 0 0 -435 0 -435 -100 0 -100 0 -1
318 c0 187 -4 307 -9 292 -8 -23 -127 -404 -172 -548 l-19 -63 -87 3 -86 3
-86 275 c-47 151 -93 298 -101 325 -15 47 -16 30 -11 -277 l5 -328 -101 0
-102 0 0 435 0 435 154 0 155 0 45 -142z m926 -628 l0 -100 -105 0 -105 0 0
100 0 100 105 0 105 0 0 -100z"/>
<path d="M2880 2510 l0 -430 102 0 101 0 -5 328 c-4 236 -2 317 5 292 6 -19
52 -165 102 -325 l91 -290 86 -3 86 -3 19 63 c11 35 55 177 99 316 l79 254 3
-316 2 -316 95 0 95 0 0 430 0 430 -152 0 -153 0 -34 -113 c-19 -61 -58 -193
-86 -291 l-52 -179 -23 84 c-19 74 -93 318 -136 452 l-16 47 -154 0 -154 0 0
-430z"/>
<path d="M6130 2795 l0 -95 -45 0 -45 0 0 -70 0 -70 44 0 44 0 4 -187 c3 -167
5 -192 23 -223 31 -52 83 -73 193 -78 l92 -4 0 71 0 71 -40 0 c-27 0 -47 7
-60 20 -18 18 -20 33 -20 175 l0 155 60 0 60 0 0 70 0 70 -60 0 -60 0 0 95 0
95 -95 0 -95 0 0 -95z"/>
<path d="M4189 2710 c-94 -16 -169 -70 -214 -152 -28 -50 -30 -59 -30 -168 0
-105 2 -119 27 -165 14 -27 39 -62 55 -76 100 -94 267 -114 400 -49 117 58
168 154 161 305 -4 103 -28 164 -86 222 -69 69 -199 104 -313 83z m167 -181
c45 -42 60 -173 26 -238 -37 -74 -120 -101 -182 -59 -49 33 -70 80 -70 156 0
100 34 157 102 171 45 10 95 -3 124 -30z"/>
<path d="M5005 2711 c-43 -11 -75 -29 -112 -64 l-33 -31 0 42 0 42 -90 0 -90
0 0 -310 0 -310 95 0 95 0 0 190 c0 204 5 232 52 264 25 18 100 21 128 6 33
-18 40 -66 40 -271 l0 -199 95 0 95 0 0 226 c0 266 -6 301 -65 359 -55 56
-129 75 -210 56z"/>
<path d="M5619 2710 c-94 -16 -169 -70 -214 -152 -28 -50 -30 -59 -30 -168 0
-105 2 -119 27 -165 14 -27 39 -62 55 -76 100 -94 267 -114 400 -49 117 58
168 154 161 305 -4 103 -28 164 -86 222 -69 69 -199 104 -313 83z m165 -180
c46 -42 62 -174 28 -239 -37 -74 -120 -101 -182 -59 -49 33 -70 80 -70 156 0
69 16 117 48 146 44 39 133 37 176 -4z"/>
<path d="M7497 2706 c-28 -8 -62 -27 -83 -47 l-34 -33 0 37 0 37 -95 0 -95 0
0 -430 0 -430 95 0 95 0 0 158 c1 110 4 152 11 140 16 -29 94 -68 146 -75 33
-3 70 0 109 12 129 37 203 167 191 339 -6 96 -30 164 -75 216 -60 71 -170 102
-265 76z m110 -181 c46 -53 55 -174 18 -244 -33 -65 -111 -88 -172 -51 -46 28
-64 61 -70 129 -7 73 10 141 42 171 48 45 142 42 182 -5z"/>
<path d="M8149 2710 c-96 -17 -178 -80 -220 -168 -46 -98 -34 -260 27 -352 87
-132 317 -170 459 -77 49 32 98 92 110 135 6 22 5 22 -82 22 -85 0 -89 -1
-116 -30 -46 -49 -136 -52 -192 -8 -29 23 -59 83 -50 98 4 6 101 10 237 10
l231 0 -7 60 c-10 87 -32 149 -70 202 -63 85 -202 131 -327 108z m159 -163
c25 -23 52 -68 52 -87 0 -6 -48 -10 -136 -10 l-136 0 6 32 c17 87 148 127 214
65z"/>
<path d="M6481 2673 c21 -54 171 -479 185 -523 16 -53 18 -104 4 -130 -12 -22
-60 -40 -107 -40 l-34 0 3 -72 3 -73 80 1 c44 1 99 7 123 13 51 14 116 70 143
123 11 22 72 188 136 371 63 183 118 338 120 345 4 9 -19 12 -94 12 l-100 0
-28 -92 c-16 -50 -45 -157 -66 -237 -21 -80 -40 -139 -43 -131 -3 8 -17 60
-31 115 -14 55 -42 155 -62 223 l-36 122 -103 0 -104 0 11 -27z"/>
<path d="M8600 2175 l0 -95 105 0 105 0 0 95 0 95 -105 0 -105 0 0 -95z"/>
</g>
</svg>
